# xmcd CD database file
#
# Track frame offsets:
#	150
#	25895
#	48922
#	81232
#	111510
#	140402
#	180027
#	208990
#
# Disc length: 3127 seconds
#
# Revision: 0
# Processed by: cddbd v1.5.2PL0 Copyright (c) Steve Scherf et al.
# Submitted via: CDex 1.70beta2
#
DISCID=690c3508
DTITLE=Bob Rockwell - Leve Eyes
DYEAR=1984
DGENRE=Jazz
TTITLE0=You And The Night And The Music
TTITLE1=Sonny's Back
TTITLE2=I See Your Face Befor Me
TTITLE3=It's Easy To Remember
TTITLE4=Will You Still Be Mine
TTITLE5=Love Eyes
TTITLE6=Namely You
TTITLE7=Old Devil Moon
EXTD=YEAR: 1984
EXTT0=
EXTT1=
EXTT2=
EXTT3=
EXTT4=
EXTT5=
EXTT6=
EXTT7=
PLAYORDER=
